# xmcd
#
# Track frame offsets:
#	150
#	24038
#	42499
#	56988
#	76102
#	95766
#	107747
#	128934
#	145248
#	162224
#	177284
#	200065
#
# Disc length: 2817 seconds
#
# Revision: 1
# Processed by: cddbd v1.4PL0 Copyright (c) Steve Scherf et al.
# Submitted via: audiograbber 1.80
#
DISCID=a40aff0c
DTITLE=Коллекция СВ - Возвращение (1986-1987)
DYEAR=1900
DGENRE=
TTITLE0=Возвращение
TTITLE1=Чудак
TTITLE2=Вот и лето прошло
TTITLE3=Про любовь
TTITLE4=Все сначала
TTITLE5=Когда ты смотришь на меня
TTITLE6=Не торопясь упасть
TTITLE7=Лодка
TTITLE8=Ключ
TTITLE9=Осенний блюз
TTITLE10=Делай свое дело
TTITLE11=Светлый праздник
EXTD=
EXTT0=
EXTT1=
EXTT2=
EXTT3=
EXTT4=
EXTT5=
EXTT6=
EXTT7=
EXTT8=
EXTT9=
EXTT10=
EXTT11=
PLAYORDER=
